<?xml version="1.0" encoding="utf-8"?>
<!-- Generator: Adobe Illustrator 26.3.1, SVG Export Plug-In . SVG Version: 6.00 Build 0)  -->
<svg version="1.1" id="Layer_1" xmlns="http://www.w3.org/2000/svg" xmlns:xlink="http://www.w3.org/1999/xlink" x="0px" y="0px"
	 viewBox="0 0 1229 179" style="enable-background:new 0 0 1229 179;" xml:space="preserve">
<style type="text/css">
	.st0{fill:#FFFFFF;}
</style>
<g>
	<path class="st0" d="M0,0.6c16-0.3,32,0,48-0.1c82.4,0,164.9,0,247.3,0c-0.1,59.2-0.1,118.4,0,177.6c-23.3-0.1-46.6,0.2-69.8-0.2
		c0.3-11.4-0.6-22.9-3.6-33.9c-5.7-21.9-19-42.3-38.2-54.6c-10.6-6.7-23-10.9-35.6-11.4c-17,0.2-33.4,7.6-46.1,18.8
		c-17.7,15.5-28.4,38.1-31.2,61.3c-1,6.6-0.7,13.2-1.4,19.8c-23.1,0.2-46.2,0-69.3,0.1L0,0.6L0,0.6z"/>
</g>
<g>
	<path class="st0" d="M510.2,0h9.5c10.4,0.9,20.7,5.4,27.5,13.5c4,4.4,6.6,9.9,9,15.3c10.2-13.4,23.5-26.5,41-28.8h10.4
		c3.8,0.6,7.7,1.4,11.3,2.8c11.5,4.5,19.9,14.7,24.2,26.1c5.5,15,6.2,31.3,5.9,47.1c0,31,0,62.1,0,93.1c0,2.1-0.3,4.7-2.4,5.8
		c-4.7,2.7-10.4,2.4-15.7,2.7c-5.7-0.2-11.7,0.1-16.9-2.5c-2.4-0.9-2.6-3.8-2.6-6c0-31.3,0-62.7,0-94c-0.2-10-1.2-20.8-7.4-29
		c-4.6-6.4-14-8.5-20.9-4.7c-7.6,4.2-12.8,11.4-18,18.2c-1.4,2-3.3,3.9-3,6.6c0,34.3,0,68.7,0,103c0,2.1-0.4,4.6-2.3,5.8
		c-4.9,2.6-10.6,2.4-16,2.7c-5.2-0.1-10.6-0.1-15.5-1.9c-2.3-0.8-4-3.1-3.7-5.6c0-30,0-60,0-90c-0.1-10.6-0.3-21.8-5.5-31.3
		c-2.9-5.5-8.9-9.5-15.2-9.3c-6.4-0.2-11.9,4.1-16.1,8.5c-4.6,5-8.8,10.3-12.2,16.1c-0.4,34-0.1,68-0.1,101.9
		c-0.2,2.8,0.8,6.6-2,8.5c-4.8,3.4-10.9,3.5-16.5,3.7c-6.3,0-13,0.4-19-2.1c-2-0.8-2.4-3.1-2.4-5c0-54,0-108.1,0-162.1
		c0.1-2.1-0.1-5,2.2-6c5-2.2,10.7-2.2,16-2.3c5,0,10,0,14.8,1.4c1.8,0.6,4,1.7,3.9,3.9c0.3,6.1-0.1,12.3,0.1,18.4
		c6.4-6.7,12.5-13.6,20.4-18.3C498.2,3,504.1,0.9,510.2,0z"/>
	<path class="st0" d="M414.9,0.2c1.7,0,3.3,0.9,4.1,2.4c0.7,1.4,1,3.1,1.3,4.6c0.7,5.5,0.7,11.1-0.4,16.6c-0.5,2.4-2.1,5.2-5,4.9
		c-21.3,0.1-42.6,0.1-63.9,0c-0.1,14.4,0,28.7,0,43.1c17.3-0.1,34.6,0,52-0.1c1.9,0.1,4.5-0.4,5.7,1.6c2.6,4,2.2,9.1,2.3,13.7
		c-0.3,4,0,8.8-3.2,11.9c-2.1,1-4.5,0.6-6.8,0.7c-16.6-0.1-33.3,0-49.9-0.1c-0.2,16.6-0.1,33.2,0,49.8c21.6-0.1,43.3-0.1,64.9,0
		c3.2-0.1,4.4,3.3,4.8,5.9c0.9,6.1,1.1,12.4-0.5,18.4c-0.5,2.5-2.7,4.4-5.3,4.1c-29.7,0-59.4,0-89.1,0c-3.4,0-7-0.8-9.3-3.5
		c-2.3-2.5-2.4-6.1-2.4-9.3c0.1-51.7-0.1-103.4,0.1-155.1c-0.1-3.8,2.3-7.2,5.6-8.8c1.3-0.6,2.8-0.9,4.2-0.9L414.9,0.2z"/>
	<path class="st0" d="M678.1,1.2c7.2-0.9,14.6-0.8,21.8,0.4c2.8,0.4,6.7,1.9,6.4,5.5c0.1,53.7,0,107.3,0,161c-0.1,2.4,0.4,5-1,7.1
		c-1.5,1.3-3.4,1.9-5.3,2.3c-7.9,1.4-16,1.3-23.8,0.1c-3-0.5-7.4-1.5-7-5.4c-0.1-55.1,0-110.1,0-165.2
		C668.9,2.2,674.6,1.7,678.1,1.2z"/>
	<path class="st0" d="M726.1,1.3c7-0.5,14-0.5,21-0.1c2.8,0.2,6.1,0.3,8.1,2.6c1.8,3.9,2.2,8.3,3.3,12.4
		c9.5,40.3,19,80.6,28.4,120.9c0.4,1.8,0.9,3.5,1.5,5.2c10.7-44.1,21.7-88.2,32.5-132.3c0.5-2.2,1-4.6,2.7-6.3
		c3.3-2.2,7.5-2.3,11.3-2.5c7-0.3,14-0.4,21,0.6c3.1,0.4,6.3,2.2,6.9,5.5c11.6,45.2,22.9,90.5,34.7,135.7
		C907.9,98.3,918.6,53.8,929,9.1c0.5-1.9,0.9-4.1,2.4-5.6c2.2-1.5,5-1.8,7.6-2.1c7-0.6,14.1-0.7,21,0.3c1.9,0.4,4,1.4,4.5,3.5
		c0.5,4.8-1,9.4-2.2,14c-13.6,49.9-27,99.9-40.6,149.8c-0.8,3.1-2.4,6.2-5.5,7.5c-6.7,2.8-14.1,1.7-21.2,1.9c-7-0.1-14.4,0.9-21.1-2
		c-2.7-1.3-3.9-4.2-4.5-6.9c-9.5-37.5-19.5-74.8-29-112.3c-8.6,34.8-17.1,69.6-25.7,104.4c-1.2,3.9-1.6,8.2-3.5,11.9
		c-2.2,3.5-6.6,4.2-10.3,4.7c-5,0.4-10-0.1-15,0.1c-6.9-0.2-14.1,1-20.6-1.9c-2.8-1.3-4-4.5-4.8-7.2c-13.6-51-27.2-102-40.9-152.9
		c-0.7-3.5-2.1-7.1-1.4-10.8C719.2,2.1,723.2,1.6,726.1,1.3z"/>
	<path class="st0" d="M978.5,5.4c2.3-3.3,6.6-4.3,10.5-4.2c29.6,0.1,59.1-0.1,88.7,0.1c2.8-0.2,4.2,2.7,4.7,5.1
		c1.2,6,1.1,12.2,0,18.2c-0.6,2.2-1.8,5.4-4.5,5.1c-21.4,0.1-42.9,0.1-64.4,0c-0.2,14.3,0,28.7-0.1,43c18.2,0.3,36.4-0.1,54.6,0.2
		c3-0.1,4.2,3,4.7,5.4c1,5.8,1,11.8-0.1,17.5c-0.5,2.2-1.9,5.1-4.6,4.7c-18.2,0.1-36.4,0-54.6,0.1c-0.1,16.5,0,33.1,0,49.6
		c21.5,0.3,43,0,64.5,0.1c2.8-0.3,4.5,2.3,5,4.7c1.3,5.2,1.1,10.7,0.6,16.1c-0.3,3-1.2,6.4-4.1,7.9h-94.7c-2.5-1.3-5.5-2.4-6.8-5.1
		c-1.8-3.7-1.2-7.9-1.3-11.9c0-48,0-96,0-144C976.8,13.8,976.1,9.2,978.5,5.4z"/>
	<g>
		<path class="st0" d="M1100.3,5.5c2.2-3.1,6.2-4,9.8-4c15,0,30,0,44.9,0c13.8,0.3,28.2,1.3,40.8,7.4c9.5,4.5,17.4,12.7,20.4,22.9
			c3.6,12.2,3,26.4-4.2,37.3c-4.3,6.6-10.9,11.2-18,14.2c8.1,1.7,15.9,5.1,22,10.7c7.5,6.8,11.7,16.5,13,26.4v10.4
			c-0.9,12.3-6.5,24.3-16,32.2c-12.8,10.8-29.9,14.7-46.3,16h-60.4c-4.7-1-8.2-5.1-8-10c-0.2-51.3,0-102.7-0.1-154
			C1098.2,11.7,1098.3,8.2,1100.3,5.5z M1134.5,74.5c7.5,0.1,15,0,22.5,0c5.6,0,11.3-1.3,15.8-4.7c8.8-6.3,10.7-19.2,6.7-28.8
			c-2.8-6.7-9.8-10.5-16.6-11.5c-9.4-1.4-18.9-0.5-28.3-0.9C1134.4,44,1134.5,59.2,1134.5,74.5z M1134.5,101.4c0,13.2,0,26.4,0,39.6
			c0.3,3.4-0.6,7,0.4,10.2c9,0.2,18.1,0,27.1,0.1c7.2,0.1,14.7-1.5,20.5-6c12.2-9.4,10.9-31.2-2.4-39.1c-6.3-3.8-13.8-4.9-21-4.9
			C1150.8,101.3,1142.6,101.2,1134.5,101.4z"/>
	</g>
</g>
</svg>
